<svg version="1.1" id="Layer_1" xmlns="http://www.w3.org/2000/svg" xmlns:xlink="http://www.w3.org/1999/xlink" x="0px" y="0px"
	 width="100%" viewBox="0 0 1024 1024" enable-background="new 0 0 1024 1024" xml:space="preserve">
<path fill="#000000" opacity="1.000000" stroke="none" 
	d="
M498.340454,449.000061 
	C498.324646,519.157349 498.304382,588.814575 498.298950,658.471863 
	C498.298462,664.801758 498.307983,671.135803 496.636871,677.301697 
	C492.127014,693.941772 475.341797,707.276001 456.994598,710.435181 
	C426.016235,715.769470 392.553986,697.742310 378.685486,672.507996 
	C376.823730,669.120422 374.222534,667.903137 370.749847,667.472168 
	C337.599304,663.357788 312.621948,639.570496 306.633911,606.698364 
	C304.579224,595.419067 304.422668,584.220337 307.088867,573.081482 
	C307.693970,570.553467 307.153442,568.990723 305.396301,567.375793 
	C284.845276,548.488098 276.741058,524.469177 277.845917,497.280975 
	C278.858154,472.371521 288.639954,450.767975 306.053711,432.929169 
	C310.179596,428.702606 311.507233,424.731476 310.713837,418.961304 
	C307.904510,398.530273 313.572418,380.012909 325.259857,363.410004 
	C341.313202,340.604980 363.806244,329.365417 391.481384,328.369598 
	C394.269501,328.269257 395.651672,327.536194 396.823975,325.124268 
	C406.502014,305.212524 422.545563,293.342865 444.215393,290.148987 
	C472.643463,285.959045 498.053009,302.282806 498.252106,334.516815 
	C498.486847,372.509949 498.328094,410.505524 498.340454,449.000061 
M311.461395,475.932312 
	C307.467804,485.623779 305.450043,495.739563 306.426117,506.160889 
	C308.118011,524.224243 314.814575,539.608032 331.237549,549.335083 
	C340.502106,554.822327 341.891968,558.699890 338.759918,569.234741 
	C335.622162,579.789001 333.042725,590.288940 335.321655,601.556213 
	C340.121002,625.284912 361.496857,641.424988 384.767517,638.400269 
	C392.963287,637.334961 396.837463,639.806396 399.335205,647.704041 
	C400.581909,651.646057 401.359314,655.692261 403.791565,659.263184 
	C411.644653,670.792725 422.468384,677.396240 436.102173,679.847778 
	C448.349945,682.050110 459.414215,677.133423 466.112305,666.725769 
	C471.730682,657.995850 472.540863,648.193420 472.556244,638.418579 
	C472.708191,541.940796 472.658081,445.462677 472.638489,348.984650 
	C472.636047,336.975616 464.156799,325.876984 452.645172,322.576050 
	C440.006134,318.951782 427.929443,325.558777 424.222382,337.717041 
	C422.834167,342.270020 423.686798,344.988342 427.759888,347.682526 
	C434.489929,352.134186 440.265137,357.694092 442.701965,365.823273 
	C444.758667,372.684326 441.509308,379.990784 435.112244,382.964966 
	C428.676117,385.957336 423.023346,383.967712 418.624786,377.196503 
	C417.354858,375.241577 416.123260,373.245941 414.682037,371.420624 
	C406.914734,361.583038 396.358093,357.253998 384.301117,358.721252 
	C361.328308,361.516815 344.229828,377.831055 339.985016,400.655548 
	C336.116699,421.455597 344.545807,443.517548 366.312927,451.513977 
	C367.557739,451.971252 368.786285,452.535217 369.921448,453.217560 
	C374.702972,456.091461 377.269440,462.539124 376.264191,468.965393 
	C375.472443,474.026611 372.180878,476.980682 366.048492,478.480042 
	C360.784393,479.767090 356.196442,477.979156 351.796722,475.537354 
	C343.388062,470.870605 336.319916,464.526978 330.249237,457.146301 
	C327.580902,453.902191 325.567230,454.214752 323.052948,457.060455 
	C318.257477,462.487976 314.688721,468.655334 311.461395,475.932312 
z"/>
<path fill="#000000" opacity="1.000000" stroke="none" 
	d="
M700.951721,638.784668 
	C688.287598,663.159546 668.172668,675.730347 641.517517,678.278015 
	C638.999817,678.518677 637.694397,679.508423 636.487793,681.548523 
	C624.703186,701.473145 606.330688,710.311279 584.047852,712.374817 
	C567.818542,713.877808 552.910767,710.532043 540.314575,699.623535 
	C531.796814,692.246948 527.595398,682.936279 527.605103,671.506042 
	C527.701782,557.677002 527.681335,443.847870 527.730164,330.018768 
	C527.738037,311.595581 538.652710,297.291534 556.497192,292.768005 
	C568.025330,289.845703 579.264954,291.613190 590.077209,296.411102 
	C605.304993,303.168396 617.133301,313.895691 626.211914,327.694153 
	C628.075195,330.526154 630.020447,331.664429 633.443115,331.718445 
	C669.283813,332.283783 701.334167,359.944672 707.298767,395.278809 
	C708.663757,403.364746 709.049011,411.480713 707.497986,419.578705 
	C706.945251,422.464722 708.701660,423.795013 710.552856,425.299866 
	C726.930969,438.613342 737.849060,455.513580 741.599060,476.272308 
	C748.307007,513.404907 739.009094,545.178955 708.204895,568.937683 
	C705.585205,570.958191 704.670166,572.632751 705.771057,575.982788 
	C712.810669,597.404358 710.802063,618.233826 700.951721,638.784668 
M554.056396,401.500000 
	C554.057617,455.661713 554.034058,509.823486 554.069580,563.985168 
	C554.090088,595.314087 554.182617,626.643127 554.296326,657.971924 
	C554.321411,664.879333 557.192261,670.614929 562.453064,674.975159 
	C579.305481,688.942688 606.977112,680.486145 613.015503,659.600891 
	C615.605042,650.644409 620.757629,647.252808 629.789551,648.966248 
	C635.984863,650.141663 642.014709,649.794983 648.031128,648.119690 
	C664.949646,643.408691 678.242249,625.570496 679.870056,606.146240 
	C681.873047,582.244080 665.430542,556.728271 639.962769,553.109375 
	C637.682373,552.785278 635.425049,552.043335 633.257263,551.228638 
	C625.530945,548.324951 621.717468,539.768982 624.589600,532.015686 
	C627.603210,523.880737 634.524231,520.753418 644.762512,523.109924 
	C658.882141,526.359863 670.972473,533.544800 681.943176,542.760376 
	C687.816345,547.693909 688.503540,547.802490 694.605530,543.026123 
	C695.648804,542.209534 696.597229,541.251953 697.496399,540.273926 
	C710.349365,526.293274 716.218811,509.897919 714.720093,490.880737 
	C713.027649,469.404907 703.904785,452.739166 684.083252,442.858215 
	C674.191711,437.927307 673.104370,435.681183 676.363464,425.164398 
	C679.270264,415.784760 680.265930,406.574890 677.749756,396.786682 
	C671.808167,373.673309 646.224365,356.304626 622.857178,360.102051 
	C613.072754,361.692078 613.098572,361.678864 608.428284,352.583832 
	C602.554626,341.145386 595.281921,330.903198 583.560425,324.714081 
	C579.116699,322.367737 574.462341,320.538422 569.220764,321.789612 
	C559.846558,324.027283 554.143616,331.440399 554.089783,342.005585 
	C553.990417,361.503265 554.060852,381.001801 554.056396,401.500000 
z"/>
<path fill="#000000" opacity="1.000000" stroke="none" 
	d="
M802.333374,384.803528 
	C814.387695,413.171326 822.310791,442.244385 825.431824,472.551727 
	C834.548645,561.082214 811.486206,639.919006 753.921143,708.181458 
	C720.538208,747.767883 679.698181,777.234253 631.628418,796.498535 
	C604.146912,807.512024 575.582764,813.934875 546.032837,816.564941 
	C526.199402,818.330078 506.455017,818.159424 486.758057,816.138550 
	C442.644379,811.612488 401.424103,797.845337 362.873962,775.989258 
	C345.867493,766.347351 330.162537,754.865723 315.188873,742.343750 
	C314.457428,741.732117 313.627014,741.238892 312.013550,740.110779 
	C312.966766,750.670959 313.625427,760.383179 314.795959,770.033264 
	C315.503723,775.868103 315.534241,781.685974 315.191589,787.476318 
	C314.819244,793.768555 309.408173,798.258118 302.988953,798.359131 
	C295.808105,798.472168 290.516907,794.624817 289.775665,788.106873 
	C288.236755,774.573914 286.950226,761.011047 285.677612,747.449463 
	C284.467194,734.550903 283.583588,721.619629 282.219513,708.738342 
	C281.272491,699.795288 286.155182,693.470642 295.042603,693.715576 
	C319.654694,694.393982 344.282990,694.802673 368.845032,696.697937 
	C376.696350,697.303772 381.550964,703.150635 381.338928,711.333740 
	C381.138702,719.059509 375.911469,724.291077 367.816742,724.261475 
	C360.338715,724.234070 352.863678,723.656128 345.384705,723.395264 
	C343.762482,723.338623 342.068024,722.996704 340.415649,723.877563 
	C340.119202,725.791565 341.756897,726.310364 342.849823,727.161560 
	C382.896576,758.351746 427.741608,778.801086 478.041779,786.365417 
	C500.102112,789.682861 522.336304,790.085510 544.688660,787.956238 
	C595.358887,783.129578 640.718018,764.714600 682.021729,735.628418 
	C715.801392,711.840698 742.417664,681.573059 762.669800,645.583740 
	C777.723450,618.832581 788.801819,590.691162 794.150391,560.357910 
	C798.473328,535.841064 799.725220,511.254913 797.863281,486.400146 
	C795.632812,456.625977 788.906250,427.996094 777.660278,400.403168 
	C772.254150,387.138794 766.192505,374.178619 758.931519,361.792725 
	C755.203735,355.433716 756.145447,348.265167 760.857239,343.883179 
	C765.976929,339.121918 773.295227,338.667755 779.232239,342.631989 
	C781.267456,343.990936 782.441772,345.950500 783.640320,347.956787 
	C790.655518,359.699036 796.836243,371.864838 802.333374,384.803528 
z"/>
<path fill="#000000" opacity="1.000000" stroke="none" 
	d="
M700.048584,310.365875 
	C680.917908,311.308289 662.264526,311.593750 643.608093,311.335876 
	C632.623169,311.184052 626.078369,300.056122 631.141296,290.336761 
	C633.367554,286.062775 636.691528,283.638367 641.875427,283.559387 
	C650.446106,283.428894 659.009094,282.792694 668.938782,282.302216 
	C661.711792,276.256195 654.748535,272.123871 647.864258,267.948639 
	C615.021851,248.030304 579.582336,234.985153 541.578918,229.565567 
	C477.707336,220.457001 417.054596,230.771881 361.030670,263.113647 
	C290.002899,304.116974 245.770798,365.332275 227.436356,445.238495 
	C221.174210,472.530518 219.521088,500.286041 221.561661,528.078064 
	C224.486816,567.917908 236.149292,605.363647 255.499176,640.347961 
	C257.678009,644.287292 259.027618,648.273499 258.145233,652.737915 
	C256.967133,658.698669 252.058624,663.046936 245.630951,664.056274 
	C240.247940,664.901672 234.493240,661.807190 231.501160,656.646790 
	C212.641983,624.121155 201.465759,588.975769 195.781464,551.962646 
	C192.331604,529.499023 191.390427,506.814362 192.963852,484.246429 
	C195.993301,440.794250 207.563065,399.459930 227.760101,360.800690 
	C269.534790,280.839600 334.954926,230.296982 421.519043,206.587753 
	C443.388916,200.597763 465.801971,198.246994 488.508972,197.491989 
	C535.653442,195.924438 580.819031,204.270691 624.162659,222.685760 
	C649.436035,233.423462 672.951355,247.174591 694.406738,264.375549 
	C696.586609,266.123199 698.866699,267.745880 701.880188,270.013428 
	C700.970886,262.459442 700.217407,255.767120 699.348633,249.089798 
	C698.214233,240.372086 696.905518,231.676498 695.827332,222.952179 
	C694.901550,215.460785 700.496277,208.383575 707.692322,207.675812 
	C716.378906,206.821457 722.402344,211.722702 723.345154,220.019562 
	C725.856018,242.114838 728.519592,264.192749 731.107300,286.279358 
	C731.512939,289.740936 731.941711,293.204834 732.179504,296.679993 
	C732.592590,302.714508 728.499390,307.951416 722.442688,309.408966 
	C715.200378,311.151794 707.837341,309.966339 700.048584,310.365875 
z"/>
<path fill="#000000" opacity="1.000000" stroke="none" 
	d="
M391.638153,572.386108 
	C402.564941,579.817383 413.590363,582.533691 425.585510,575.729431 
	C428.183136,574.255859 431.125488,573.782654 434.202789,573.575684 
	C446.680237,572.736328 449.291809,584.896118 445.101440,592.096863 
	C439.904816,601.026855 431.359497,604.906982 421.827881,606.911987 
	C399.542725,611.599670 374.852448,601.761292 362.715942,582.372803 
	C351.636566,564.673218 350.075806,545.685059 359.995972,526.884155 
	C365.450287,516.546936 374.360016,509.410614 385.815979,506.229492 
	C393.222565,504.172821 400.485962,507.984131 403.040649,514.583191 
	C405.826721,521.779907 403.193878,528.850342 396.217072,532.907898 
	C379.485382,542.638672 377.506226,558.640869 391.638153,572.386108 
z"/>
<path fill="#000000" opacity="1.000000" stroke="none" 
	d="
M440.242889,429.743103 
	C451.106476,440.983948 457.990967,453.875488 459.239258,469.213776 
	C459.963287,478.111084 455.654022,483.370117 448.270355,484.274841 
	C441.148682,485.147430 436.789246,481.731537 434.795746,472.835663 
	C432.045349,460.562469 425.615601,451.243073 414.310669,445.494995 
	C409.363495,442.979614 404.121185,441.536896 398.544708,441.331177 
	C389.647186,441.002960 384.666260,436.099487 384.674133,427.751526 
	C384.682526,418.831238 390.411957,412.671448 399.002808,412.658417 
	C414.950104,412.634277 428.260498,419.166138 440.242889,429.743103 
z"/>
<path fill="#000000" opacity="1.000000" stroke="none" 
	d="
M618.870056,489.134216 
	C610.725220,492.594208 602.626343,493.969971 594.168274,493.335571 
	C583.548523,492.539001 576.663147,483.613770 579.804504,474.624542 
	C581.837646,468.806213 586.968689,465.440277 593.906921,465.778412 
	C598.668091,466.010437 603.099060,465.461884 607.381409,463.133270 
	C617.334778,457.721008 621.510986,449.623016 619.378113,439.276337 
	C617.199829,428.709412 610.609741,423.225067 598.986877,422.306458 
	C590.441467,421.631104 585.390686,417.377411 584.761597,410.326080 
	C584.156738,403.547668 589.340881,397.267975 596.949707,395.561829 
	C613.396240,391.873932 634.792236,403.285614 641.685547,420.169006 
	C649.922424,440.343170 647.483337,459.489349 634.367615,477.068115 
	C630.403198,482.381439 625.171753,486.160156 618.870056,489.134216 
z"/>
<path fill="#000000" opacity="1.000000" stroke="none" 
	d="
M564.807556,562.674927 
	C564.433167,556.864502 564.739868,551.571472 566.496033,546.462158 
	C568.572144,540.421631 573.049072,537.859070 579.813416,538.718628 
	C585.487122,539.439636 589.012939,543.541870 589.377869,549.639465 
	C589.685669,554.781433 589.807068,559.967346 590.599976,565.041748 
	C593.484863,583.504028 614.974487,595.826721 630.974365,588.784790 
	C639.812805,584.894775 644.821533,586.322754 648.356628,591.741028 
	C652.974731,598.819214 650.769653,606.898926 642.901611,611.729126 
	C626.052124,622.072998 602.789978,619.960999 586.514832,606.568604 
	C574.051331,596.312683 567.475830,582.923035 565.598267,567.048706 
	C565.442627,565.733154 565.109131,564.438599 564.807556,562.674927 
z"/>
</svg>